<?xml version="1.0" encoding="utf-8"?>
<!-- Generator: Adobe Illustrator 24.2.0, SVG Export Plug-In . SVG Version: 6.00 Build 0)  -->
<svg version="1.1" id="Capa_1" xmlns="http://www.w3.org/2000/svg" xmlns:xlink="http://www.w3.org/1999/xlink" x="0px" y="0px"
	 viewBox="0 0 202 102" style="enable-background:new 0 0 202 102;" xml:space="preserve">
<style type="text/css">
	.st0{fill:#FA0050;}
</style>
<g id="peya-red">
	<g id="Sin-título-1-copia" transform="translate(3.000000, 1.000000)">
		<g id="Group-2">
			<g id="Group" transform="translate(44.000000, 9.000000)">
				<path id="Path" class="st0" d="M63,34.5c-1,0-1.8,0.8-1.8,1.8c0,0.8,0.5,1.4,1.4,1.4c1,0,1.8-0.8,1.8-1.8
					C64.4,35,63.9,34.5,63,34.5z"/>
				<path id="Shape" class="st0" d="M59.8,35c0-0.1-0.1-0.1-0.1-0.1h-2.2c-0.1,0-0.2,0.1-0.2,0.2c0,0-0.9,4.3-0.9,4.6
					c-0.6-1-1.7-1.6-3-1.6c-2.7,0-4.7,2.2-4.7,5.2c0,2.5,1.5,4.1,3.7,4.1c1.1,0,2-0.4,2.7-1.2c-0.1,0.2-0.1,0.5-0.1,0.7
					c0,0.1,0,0.1,0.1,0.2c0,0.1,0.1,0.1,0.1,0.1h2.2c0.1,0,0.2-0.1,0.2-0.2l2.4-11.8C59.9,35.1,59.8,35,59.8,35z M55.5,42.7
					c-0.1,0.3-0.2,0.6-0.3,0.9c-0.1,0.3-0.3,0.5-0.5,0.7c-0.2,0.2-0.4,0.3-0.7,0.5c-0.5,0.2-1.1,0.2-1.5,0c-0.2-0.1-0.4-0.2-0.5-0.4
					s-0.3-0.4-0.3-0.6c-0.1-0.2-0.1-0.5-0.1-0.8c0-0.3,0.1-0.7,0.2-1c0.1-0.3,0.3-0.6,0.5-0.8s0.5-0.4,0.8-0.5
					c0.3-0.1,0.6-0.2,0.9-0.2c0.3,0,0.5,0.1,0.8,0.2c0.2,0.1,0.4,0.3,0.6,0.5c0.1,0.2,0.3,0.4,0.3,0.7
					C55.6,42.1,55.6,42.4,55.5,42.7z"/>
				<path id="Path_1_" class="st0" d="M63.3,39H61c-0.1,0-0.2,0.1-0.2,0.1l-1.5,7.8c0,0.1,0,0.1,0.1,0.1c0,0,0.1,0.1,0.2,0.1h2.3
					c0.1,0,0.2-0.1,0.2-0.1l1.6-7.7c0-0.1,0-0.1-0.1-0.1C63.4,39,63.3,39,63.3,39z"/>
				<path id="Shape_1_" class="st0" d="M29.8,46.4c0.2-1,0.7-3.4,0.7-3.4c0.1,0,2.7,0,2.7,0c3.1,0,5.1-1.7,5.1-4.4
					c0-2.4-1.6-3.7-4.3-3.7h-4.6c-0.1,0-0.2,0.1-0.2,0.2l-2.4,11.7c0,0.1,0,0.1,0.1,0.2c0,0.1,0.1,0.1,0.2,0.1h0.9H29
					C29,47.1,29.6,47.1,29.8,46.4z M33.2,40.5c0,0-2.2,0-2.3,0c0-0.1,0.6-3,0.6-3.1c0.1,0,2.1,0,2.1,0c1,0,1.6,0.5,1.6,1.4
					C35.3,39.8,34.5,40.5,33.2,40.5z"/>
				<path id="Shape_2_" class="st0" d="M80.4,38c-3,0-5.2,2.2-5.2,5.1c0,2.6,1.7,4.2,4.4,4.2c3,0,5.2-2.2,5.2-5.1
					C84.8,39.7,83.1,38,80.4,38z M79.8,44.7c-1.2,0-1.8-0.6-1.8-1.7c0-1.4,1-2.3,2.2-2.3c1.2,0,1.8,0.6,1.8,1.7
					C82,43.8,81.1,44.7,79.8,44.7z"/>
				<path id="Shape_3_" class="st0" d="M75.5,35c0-0.1-0.1-0.1-0.1-0.1h-2.2c-0.1,0-0.2,0.1-0.2,0.2c0,0-0.9,4.3-0.9,4.6
					c-0.6-1-1.7-1.6-3-1.6c-2.7,0-4.7,2.2-4.7,5.2c0,2.5,1.5,4.1,3.7,4.1c1.1,0,2-0.4,2.7-1.2c-0.1,0.2-0.1,0.5-0.1,0.7
					c0,0.1,0,0.1,0.1,0.2c0,0.1,0.1,0.1,0.1,0.1H73c0.1,0,0.2-0.1,0.2-0.2l2.4-11.8C75.5,35.1,75.5,35,75.5,35z M71.2,42.7
					c-0.1,0.3-0.2,0.6-0.3,0.9c-0.1,0.3-0.3,0.5-0.5,0.7c-0.2,0.2-0.4,0.3-0.7,0.5c-0.5,0.2-1.1,0.2-1.5,0c-0.2-0.1-0.4-0.2-0.5-0.4
					s-0.3-0.4-0.3-0.6s-0.1-0.5-0.1-0.8c0-0.3,0.1-0.7,0.2-1s0.3-0.6,0.5-0.8s0.5-0.4,0.8-0.5c0.3-0.1,0.6-0.2,0.9-0.2
					c0.3,0,0.5,0.1,0.8,0.2c0.2,0.1,0.4,0.3,0.6,0.5c0.1,0.2,0.3,0.4,0.3,0.7C71.3,42.1,71.3,42.4,71.2,42.7z"/>
				<path id="Path_2_" class="st0" d="M92.2,38.7C91,38.2,89.8,38,88.7,38c-1.9,0.2-3,1.3-2.9,3c0.1,1,0.7,1.8,1.8,2.4l1.2,0.6
					c0.5,0.3,0.5,0.4,0.6,0.5c0,0.4-0.4,0.5-0.6,0.5c-0.8,0.1-1.7-0.2-2.7-0.8c-0.1,0-0.1,0-0.1,0c-0.1,0-0.1,0.1-0.1,0.1l-1,1.7
					c-0.1,0.1,0,0.2,0.1,0.3c1.2,0.8,2.6,1.2,4,1.1c2.1-0.2,3.3-1.3,3.1-3.1c-0.1-1.1-0.6-1.7-1.8-2.4l-1.1-0.6
					c-0.6-0.4-0.7-0.5-0.7-0.6c0-0.1,0-0.4,0.6-0.4c0.6-0.1,1.4,0.1,2.2,0.5c0.1,0,0.1,0,0.1,0c0.1,0,0.1-0.1,0.1-0.1l0.8-1.7
					C92.3,38.9,92.3,38.7,92.2,38.7z"/>
				<path id="Path_3_" class="st0" d="M104.3,35.3c0-0.1-0.1-0.1-0.2-0.1h-3.1c-0.1,0-0.1,0-0.2,0.1c0,0-3.1,4.4-3.3,4.9
					c-0.1-0.4-1.6-4.8-1.6-4.8c0-0.1-0.1-0.2-0.2-0.2h-2.8c-0.1,0-0.1,0-0.2,0.1c0,0.1-0.1,0.1,0,0.2l2.9,7.4l-0.9,4.3
					c0,0.1,0,0.1,0.1,0.2c0,0.1,0.1,0.1,0.2,0.1h2.2c0.3,0,0.5-0.2,0.6-0.5l0.8-4l5.8-7.5C104.3,35.4,104.3,35.3,104.3,35.3z"/>
				<path id="Shape_4_" class="st0" d="M110.9,38.6c0-0.1-0.1-0.1-0.1-0.1h-2.2c-0.1,0-0.2,0.1-0.2,0.2c0,0-0.1,0.4-0.1,0.7l0,0
					c-0.5-0.6-1.3-1-2-1c-0.7-0.1-1.4,0.1-2,0.3c-2.1,0.8-3.6,2.9-3.5,5.2c0,2,1.3,3.3,3.3,3.5c1.1,0.1,2-0.3,2.9-1
					c-0.1,0.2-0.1,0.5-0.1,0.7c0,0.1,0,0.1,0.1,0.2c0,0.1,0.1,0.1,0.1,0.1h2.2c0.1,0,0.2-0.1,0.2-0.2l1.7-8.4
					C111,38.7,111,38.7,110.9,38.6z M107.6,42.9c-0.1,0.3-0.1,0.6-0.3,0.8c-0.1,0.3-0.3,0.5-0.5,0.7c-0.2,0.2-0.4,0.3-0.7,0.5
					c-0.5,0.2-1,0.2-1.5,0c-0.2-0.1-0.4-0.2-0.5-0.4c-0.1-0.1-0.3-0.3-0.3-0.6c-0.1-0.2-0.1-0.5-0.1-0.7c0-0.3,0.1-0.6,0.2-1
					c0.1-0.3,0.3-0.6,0.5-0.8s0.4-0.4,0.7-0.5s0.6-0.2,0.9-0.2c0.3,0,0.5,0.1,0.7,0.1c0.2,0.1,0.4,0.3,0.5,0.4
					c0.1,0.2,0.3,0.4,0.3,0.6C107.6,42.3,107.6,42.6,107.6,42.9z"/>
				<path id="Shape_5_" class="st0" d="M43.5,38c-3,0-5.1,2.2-5.1,5.2c0,2.6,1.7,4.2,4.5,4.2c1.3,0,2.3-0.3,3.4-1.1
					c0.1-0.1,0.1-0.2,0-0.3L45,44.6c-0.1-0.1-0.1-0.1-0.2,0c-0.6,0.3-1.2,0.5-1.8,0.5c-1.3,0-2-0.6-2-1.6l6.3,0
					c0.1,0,0.2-0.1,0.2-0.2c0.1-0.6,0.2-1.1,0.2-1.6C47.6,39.4,46,38,43.5,38z M41.2,41.5c0.4-1,1.2-1.5,2.3-1.5s1.7,0.5,1.7,1.5
					C45,41.5,41.4,41.5,41.2,41.5z"/>
			</g>
			<path id="Path_4_" class="st0" d="M55.4,36.7h-0.3h-1.4H37.5c-0.3,0-0.5,0.2-0.5,0.5v2.6c0,2.8,2,4.4,5.6,4.4l12.8,0
				c1.3,0,2.4,1.1,2.4,2.4c0,1.3-1.1,2.4-2.4,2.4l0,0H41c-0.2,0-0.4,0.1-0.4,0.3l-3.4,13.4c0,0.1,0,0.3,0.1,0.4s0.2,0.2,0.4,0.2h4.5
				c1.7,0,2.5-1.4,2.7-2.2l1.3-4.8h9.1c5.4,0,9.8-4.4,9.8-9.8S60.8,36.7,55.4,36.7z"/>
		</g>
	</g>
</g>
</svg>
